<?xml version="1.0" standalone="no"?><!DOCTYPE svg PUBLIC "-//W3C//DTD SVG 1.1//EN" "http://www.w3.org/Graphics/SVG/1.1/DTD/svg11.dtd"><svg class="icon" width="32px" height="32.00px" viewBox="0 0 1024 1024" version="1.1" xmlns="http://www.w3.org/2000/svg"><path fill="#d4237a" d="M493.2 170.5l-160.5 98.2c-20.9 12.7-45 19.4-69.5 19.3h-79.4c-66.2 0-119.1 51.5-119.1 114.2v227c0 69.2 57.9 125.5 129.1 125.5h92.6c24.8 0 47.9 6.4 69.5 19.3l138.9 82.1c10 6.5 21.5 9.7 34.7 9.7 36.4 0 66.2-29 66.2-64.4V225.2c0-11.2-3.3-24.2-10-33.8-21.4-30.5-61.1-40.2-92.5-20.9zM924.9 481.1H726.4c-18-0.2-32.8 14.2-33.1 32.2 0 17.7 14.9 32.2 33.1 32.2h198.5c18.2 0 33.1-14.5 33.1-32.2-0.3-18-15.1-32.4-33.1-32.2zM911.7 754.8l-172.1-96.5c-15.4-9.2-35.4-4.2-44.7 11.2-4.5 7.2-5.9 16-3.7 24.2s7.7 15.2 15.2 19.2l172.1 96.6c15.4 9.2 35.4 4.2 44.7-11.2 10-14.5 5-33.8-11.5-43.5zM738 368.5l172-96.6c16.6-9.6 21.5-28.9 11.6-43.5-9.9-16.1-29.7-20.9-44.7-11.2l-172.1 96.6c-16.5 9.7-21.5 29-11.6 43.5 10.1 14.4 29.9 20.8 44.8 11.2z" /></svg>